<svg xmlns="http://www.w3.org/2000/svg" xmlns:xlink="http://www.w3.org/1999/xlink" width="800" zoomAndPan="magnify" viewBox="0 0 600 599.999999" height="800" preserveAspectRatio="xMidYMid meet" version="1.0"><defs><clipPath id="7114880615"><path d="M 128.121094 181.730469 L 487 181.730469 L 487 433.304688 L 128.121094 433.304688 Z M 128.121094 181.730469 " clip-rule="nonzero"/></clipPath><clipPath id="042eba7017"><path d="M 155.871094 181.730469 L 459.164062 181.730469 C 466.523438 181.730469 473.582031 184.65625 478.785156 189.859375 C 483.992188 195.0625 486.914062 202.121094 486.914062 209.480469 L 486.914062 405.554688 C 486.914062 412.914062 483.992188 419.972656 478.785156 425.175781 C 473.582031 430.378906 466.523438 433.304688 459.164062 433.304688 L 155.871094 433.304688 C 148.511719 433.304688 141.453125 430.378906 136.25 425.175781 C 131.042969 419.972656 128.121094 412.914062 128.121094 405.554688 L 128.121094 209.480469 C 128.121094 202.121094 131.042969 195.0625 136.25 189.859375 C 141.453125 184.65625 148.511719 181.730469 155.871094 181.730469 Z M 155.871094 181.730469 " clip-rule="nonzero"/></clipPath><clipPath id="34918075b8"><path d="M 128.125 181.730469 L 486.621094 181.730469 L 486.621094 432.980469 L 128.125 432.980469 Z M 128.125 181.730469 " clip-rule="nonzero"/></clipPath><clipPath id="c7ad0c1620"><path d="M 155.875 181.730469 L 459.160156 181.730469 C 466.519531 181.730469 473.578125 184.65625 478.78125 189.859375 C 483.988281 195.0625 486.910156 202.121094 486.910156 209.480469 L 486.910156 405.550781 C 486.910156 412.910156 483.988281 419.96875 478.78125 425.171875 C 473.578125 430.375 466.519531 433.296875 459.160156 433.296875 L 155.875 433.296875 C 148.511719 433.296875 141.457031 430.375 136.25 425.171875 C 131.046875 419.96875 128.125 412.910156 128.125 405.550781 L 128.125 209.480469 C 128.125 202.121094 131.046875 195.0625 136.25 189.859375 C 141.457031 184.65625 148.511719 181.730469 155.875 181.730469 Z M 155.875 181.730469 " clip-rule="nonzero"/></clipPath><clipPath id="4160f4f220"><path d="M 113.085938 166.695312 L 472 166.695312 L 472 418.269531 L 113.085938 418.269531 Z M 113.085938 166.695312 " clip-rule="nonzero"/></clipPath><clipPath id="ed4ef41ad8"><path d="M 140.835938 166.695312 L 444.128906 166.695312 C 451.488281 166.695312 458.546875 169.621094 463.75 174.824219 C 468.957031 180.027344 471.878906 187.085938 471.878906 194.445312 L 471.878906 390.519531 C 471.878906 397.878906 468.957031 404.9375 463.75 410.140625 C 458.546875 415.34375 451.488281 418.269531 444.128906 418.269531 L 140.835938 418.269531 C 133.476562 418.269531 126.417969 415.34375 121.214844 410.140625 C 116.007812 404.9375 113.085938 397.878906 113.085938 390.519531 L 113.085938 194.445312 C 113.085938 187.085938 116.007812 180.027344 121.214844 174.824219 C 126.417969 169.621094 133.476562 166.695312 140.835938 166.695312 Z M 140.835938 166.695312 " clip-rule="nonzero"/></clipPath><clipPath id="4fc7c29da3"><path d="M 113.089844 166.695312 L 471.585938 166.695312 L 471.585938 417.945312 L 113.089844 417.945312 Z M 113.089844 166.695312 " clip-rule="nonzero"/></clipPath><clipPath id="61dbb45761"><path d="M 140.835938 166.695312 L 444.125 166.695312 C 451.484375 166.695312 458.542969 169.621094 463.746094 174.824219 C 468.953125 180.027344 471.875 187.085938 471.875 194.445312 L 471.875 390.511719 C 471.875 397.875 468.953125 404.929688 463.746094 410.136719 C 458.542969 415.339844 451.484375 418.261719 444.125 418.261719 L 140.835938 418.261719 C 133.476562 418.261719 126.417969 415.339844 121.214844 410.136719 C 116.011719 404.929688 113.089844 397.875 113.089844 390.511719 L 113.089844 194.445312 C 113.089844 187.085938 116.011719 180.027344 121.214844 174.824219 C 126.417969 169.621094 133.476562 166.695312 140.835938 166.695312 Z M 140.835938 166.695312 " clip-rule="nonzero"/></clipPath><clipPath id="fccf7d55e8"><path d="M 150 200.15625 L 434.742188 200.15625 L 434.742188 384.089844 L 150 384.089844 Z M 150 200.15625 " clip-rule="nonzero"/></clipPath><clipPath id="4204f43c51"><path d="M 170.863281 200.875 L 414.101562 200.875 C 425.285156 200.875 434.351562 209.941406 434.351562 221.125 L 434.351562 363.839844 C 434.351562 375.023438 425.285156 384.089844 414.101562 384.089844 L 170.863281 384.089844 C 159.679688 384.089844 150.613281 375.023438 150.613281 363.839844 L 150.613281 221.125 C 150.613281 209.941406 159.679688 200.875 170.863281 200.875 Z M 170.863281 200.875 " clip-rule="nonzero"/></clipPath><clipPath id="960e613f58"><path d="M 150.617188 200.875 L 434.113281 200.875 L 434.113281 383.875 L 150.617188 383.875 Z M 150.617188 200.875 " clip-rule="nonzero"/></clipPath><clipPath id="22a13e9505"><path d="M 170.863281 200.875 L 414.09375 200.875 C 425.277344 200.875 434.34375 209.941406 434.34375 221.125 L 434.34375 363.835938 C 434.34375 375.019531 425.277344 384.085938 414.09375 384.085938 L 170.863281 384.085938 C 159.683594 384.085938 150.617188 375.019531 150.617188 363.835938 L 150.617188 221.125 C 150.617188 209.941406 159.683594 200.875 170.863281 200.875 Z M 170.863281 200.875 " clip-rule="nonzero"/></clipPath><clipPath id="e1e8e34970"><path d="M 169.625 209.179688 L 184.527344 209.179688 L 184.527344 224.082031 L 169.625 224.082031 Z M 169.625 209.179688 " clip-rule="nonzero"/></clipPath><clipPath id="60900d83f4"><path d="M 177.078125 209.179688 C 172.960938 209.179688 169.625 212.515625 169.625 216.632812 C 169.625 220.746094 172.960938 224.082031 177.078125 224.082031 C 181.191406 224.082031 184.527344 220.746094 184.527344 216.632812 C 184.527344 212.515625 181.191406 209.179688 177.078125 209.179688 Z M 177.078125 209.179688 " clip-rule="nonzero"/></clipPath><clipPath id="dd0ef00d43"><path d="M 169.625 209.179688 L 184.519531 209.179688 L 184.519531 224.074219 L 169.625 224.074219 Z M 169.625 209.179688 " clip-rule="nonzero"/></clipPath><clipPath id="176b1f150e"><path d="M 177.074219 209.179688 C 172.960938 209.179688 169.625 212.515625 169.625 216.628906 C 169.625 220.742188 172.960938 224.074219 177.074219 224.074219 C 181.1875 224.074219 184.519531 220.742188 184.519531 216.628906 C 184.519531 212.515625 181.1875 209.179688 177.074219 209.179688 Z M 177.074219 209.179688 " clip-rule="nonzero"/></clipPath><clipPath id="056eb9e11d"><path d="M 191.21875 209.179688 L 206.121094 209.179688 L 206.121094 224.082031 L 191.21875 224.082031 Z M 191.21875 209.179688 " clip-rule="nonzero"/></clipPath><clipPath id="542e6978a0"><path d="M 198.667969 209.179688 C 194.554688 209.179688 191.21875 212.515625 191.21875 216.632812 C 191.21875 220.746094 194.554688 224.082031 198.667969 224.082031 C 202.785156 224.082031 206.121094 220.746094 206.121094 216.632812 C 206.121094 212.515625 202.785156 209.179688 198.667969 209.179688 Z M 198.667969 209.179688 " clip-rule="nonzero"/></clipPath><clipPath id="6a93197c14"><path d="M 191.21875 209.179688 L 206.113281 209.179688 L 206.113281 224.074219 L 191.21875 224.074219 Z M 191.21875 209.179688 " clip-rule="nonzero"/></clipPath><clipPath id="227088f93d"><path d="M 198.664062 209.179688 C 194.550781 209.179688 191.21875 212.515625 191.21875 216.628906 C 191.21875 220.742188 194.550781 224.074219 198.664062 224.074219 C 202.777344 224.074219 206.113281 220.742188 206.113281 216.628906 C 206.113281 212.515625 202.777344 209.179688 198.664062 209.179688 Z M 198.664062 209.179688 " clip-rule="nonzero"/></clipPath><clipPath id="c0058d5715"><path d="M 212.808594 209.179688 L 227.710938 209.179688 L 227.710938 224.082031 L 212.808594 224.082031 Z M 212.808594 209.179688 " clip-rule="nonzero"/></clipPath><clipPath id="de73d7ccc8"><path d="M 220.257812 209.179688 C 216.144531 209.179688 212.808594 212.515625 212.808594 216.632812 C 212.808594 220.746094 216.144531 224.082031 220.257812 224.082031 C 224.375 224.082031 227.710938 220.746094 227.710938 216.632812 C 227.710938 212.515625 224.375 209.179688 220.257812 209.179688 Z M 220.257812 209.179688 " clip-rule="nonzero"/></clipPath><clipPath id="736a5ef62b"><path d="M 212.808594 209.179688 L 227.703125 209.179688 L 227.703125 224.074219 L 212.808594 224.074219 Z M 212.808594 209.179688 " clip-rule="nonzero"/></clipPath><clipPath id="8dcdf6fa56"><path d="M 220.253906 209.179688 C 216.140625 209.179688 212.808594 212.515625 212.808594 216.628906 C 212.808594 220.742188 216.140625 224.074219 220.253906 224.074219 C 224.367188 224.074219 227.703125 220.742188 227.703125 216.628906 C 227.703125 212.515625 224.367188 209.179688 220.253906 209.179688 Z M 220.253906 209.179688 " clip-rule="nonzero"/></clipPath><clipPath id="6335707a8f"><path d="M 184.527344 271.582031 L 321.632812 271.582031 L 321.632812 363.878906 L 184.527344 363.878906 Z M 184.527344 271.582031 " clip-rule="nonzero"/></clipPath><clipPath id="0961ddec5a"><path d="M 184.53125 271.582031 L 321.621094 271.582031 L 321.621094 363.832031 L 184.53125 363.832031 Z M 184.53125 271.582031 " clip-rule="nonzero"/></clipPath><clipPath id="39db6ed509"><path d="M 265.730469 256.367188 L 402.835938 256.367188 L 402.835938 348.660156 L 265.730469 348.660156 Z M 265.730469 256.367188 " clip-rule="nonzero"/></clipPath><clipPath id="a5617d0bfe"><path d="M 265.734375 256.367188 L 402.824219 256.367188 L 402.824219 348.617188 L 265.734375 348.617188 Z M 265.734375 256.367188 " clip-rule="nonzero"/></clipPath></defs><rect x="-60" width="720" fill="#ffffff" y="-60" height="719.999999" fill-opacity="1"/><rect x="-60" width="720" fill="#ffffff" y="-60" height="719.999999" fill-opacity="1"/><g clip-path="url(#7114880615)"><g clip-path="url(#042eba7017)"><path fill="#000000" d="M 128.121094 181.730469 L 486.804688 181.730469 L 486.804688 433.304688 L 128.121094 433.304688 Z M 128.121094 181.730469 " fill-opacity="1" fill-rule="nonzero"/></g></g><g clip-path="url(#34918075b8)"><g clip-path="url(#c7ad0c1620)"><path stroke-linecap="butt" transform="matrix(0.75, 0, 0, 0.75, 128.123695, 181.732116)" fill="none" stroke-linejoin="miter" d="M 37.001742 -0.00219666 L 441.381967 -0.00219666 C 451.194468 -0.00219666 460.605927 3.898845 467.543427 10.836345 C 474.486135 17.773846 478.381969 27.185304 478.381969 36.997805 L 478.381969 298.424899 C 478.381969 308.2374 474.486135 317.648859 467.543427 324.586359 C 460.605927 331.523859 451.194468 335.419693 441.381967 335.419693 L 37.001742 335.419693 C 27.184033 335.419693 17.777783 331.523859 10.835074 324.586359 C 3.897574 317.648859 0.00174022 308.2374 0.00174022 298.424899 L 0.00174022 36.997805 C 0.00174022 27.185304 3.897574 17.773846 10.835074 10.836345 C 17.777783 3.898845 27.184033 -0.00219666 37.001742 -0.00219666 Z M 37.001742 -0.00219666 " stroke="#000000" stroke-width="10" stroke-opacity="1" stroke-miterlimit="4"/></g></g><g clip-path="url(#4160f4f220)"><g clip-path="url(#ed4ef41ad8)"><path fill="#90a7ea" d="M 113.085938 166.695312 L 471.769531 166.695312 L 471.769531 418.269531 L 113.085938 418.269531 Z M 113.085938 166.695312 " fill-opacity="1" fill-rule="nonzero"/></g></g><g clip-path="url(#4fc7c29da3)"><g clip-path="url(#61dbb45761)"><path stroke-linecap="butt" transform="matrix(0.75, 0, 0, 0.75, 113.088087, 166.696522)" fill="none" stroke-linejoin="miter" d="M 36.997136 -0.00161332 L 441.38257 -0.00161332 C 451.19507 -0.00161332 460.606529 3.899429 467.544029 10.836929 C 474.486738 17.774429 478.382572 27.185888 478.382572 36.998388 L 478.382572 298.420274 C 478.382572 308.237983 474.486738 317.644234 467.544029 324.586942 C 460.606529 331.524442 451.19507 335.420276 441.38257 335.420276 L 36.997136 335.420276 C 27.184636 335.420276 17.773177 331.524442 10.835677 324.586942 C 3.898176 317.644234 0.00234277 308.237983 0.00234277 298.420274 L 0.00234277 36.998388 C 0.00234277 27.185888 3.898176 17.774429 10.835677 10.836929 C 17.773177 3.899429 27.184636 -0.00161332 36.997136 -0.00161332 Z M 36.997136 -0.00161332 " stroke="#000000" stroke-width="10" stroke-opacity="1" stroke-miterlimit="4"/></g></g><g clip-path="url(#fccf7d55e8)"><g clip-path="url(#4204f43c51)"><path fill="#90a7ea" d="M 150.613281 200.875 L 434.027344 200.875 L 434.027344 384.089844 L 150.613281 384.089844 Z M 150.613281 200.875 " fill-opacity="1" fill-rule="nonzero"/></g></g><g clip-path="url(#960e613f58)"><g clip-path="url(#22a13e9505)"><path stroke-linecap="butt" transform="matrix(0.75, 0, 0, 0.75, 150.615769, 200.873786)" fill="none" stroke-linejoin="miter" d="M 26.996684 0.00161889 L 351.30399 0.00161889 C 366.215449 0.00161889 378.303991 12.090161 378.303991 27.00162 L 378.303991 217.282878 C 378.303991 232.194337 366.215449 244.282879 351.30399 244.282879 L 26.996684 244.282879 C 12.090433 244.282879 0.00189124 232.194337 0.00189124 217.282878 L 0.00189124 27.00162 C 0.00189124 12.090161 12.090433 0.00161889 26.996684 0.00161889 Z M 26.996684 0.00161889 " stroke="#000000" stroke-width="10" stroke-opacity="1" stroke-miterlimit="4"/></g></g><path stroke-linecap="butt" transform="matrix(0.75, 0.000000000000000113, -0.000000000000000113, 0.75, 150.613091, 226.943696)" fill="none" stroke-linejoin="miter" d="M 0.000254102 2.502156 L 375.864853 2.502156 " stroke="#000000" stroke-width="5" stroke-opacity="1" stroke-miterlimit="4"/><g clip-path="url(#e1e8e34970)"><g clip-path="url(#60900d83f4)"><path fill="#90a7ea" d="M 169.625 209.179688 L 184.527344 209.179688 L 184.527344 224.082031 L 169.625 224.082031 Z M 169.625 209.179688 " fill-opacity="1" fill-rule="nonzero"/></g></g><g clip-path="url(#dd0ef00d43)"><g clip-path="url(#176b1f150e)"><path stroke-linecap="butt" transform="matrix(0.75, 0, 0, 0.75, 169.626204, 209.180723)" fill="none" stroke-linejoin="miter" d="M 9.930686 -0.00138077 C 4.446311 -0.00138077 -0.00160568 4.446536 -0.00160568 9.930911 C -0.00160568 15.415287 4.446311 19.857995 9.930686 19.857995 C 15.415062 19.857995 19.85777 15.415287 19.85777 9.930911 C 19.85777 4.446536 15.415062 -0.00138077 9.930686 -0.00138077 Z M 9.930686 -0.00138077 " stroke="#000000" stroke-width="6" stroke-opacity="1" stroke-miterlimit="4"/></g></g><g clip-path="url(#056eb9e11d)"><g clip-path="url(#542e6978a0)"><path fill="#90a7ea" d="M 191.21875 209.179688 L 206.121094 209.179688 L 206.121094 224.082031 L 191.21875 224.082031 Z M 191.21875 209.179688 " fill-opacity="1" fill-rule="nonzero"/></g></g><g clip-path="url(#6a93197c14)"><g clip-path="url(#227088f93d)"><path stroke-linecap="butt" transform="matrix(0.75, 0, 0, 0.75, 191.216915, 209.180723)" fill="none" stroke-linejoin="miter" d="M 9.92953 -0.00138077 C 4.445155 -0.00138077 0.00244621 4.446536 0.00244621 9.930911 C 0.00244621 15.415287 4.445155 19.857995 9.92953 19.857995 C 15.413905 19.857995 19.861822 15.415287 19.861822 9.930911 C 19.861822 4.446536 15.413905 -0.00138077 9.92953 -0.00138077 Z M 9.92953 -0.00138077 " stroke="#000000" stroke-width="6" stroke-opacity="1" stroke-miterlimit="4"/></g></g><g clip-path="url(#c0058d5715)"><g clip-path="url(#de73d7ccc8)"><path fill="#90a7ea" d="M 212.808594 209.179688 L 227.710938 209.179688 L 227.710938 224.082031 L 212.808594 224.082031 Z M 212.808594 209.179688 " fill-opacity="1" fill-rule="nonzero"/></g></g><g clip-path="url(#736a5ef62b)"><g clip-path="url(#8dcdf6fa56)"><path stroke-linecap="butt" transform="matrix(0.75, 0, 0, 0.75, 212.807643, 209.180723)" fill="none" stroke-linejoin="miter" d="M 9.928351 -0.00138077 C 4.443976 -0.00138077 0.00126737 4.446536 0.00126737 9.930911 C 0.00126737 15.415287 4.443976 19.857995 9.928351 19.857995 C 15.412726 19.857995 19.860643 15.415287 19.860643 9.930911 C 19.860643 4.446536 15.412726 -0.00138077 9.928351 -0.00138077 Z M 9.928351 -0.00138077 " stroke="#000000" stroke-width="6" stroke-opacity="1" stroke-miterlimit="4"/></g></g><g clip-path="url(#6335707a8f)"><path fill="#90a7ea" d="M 184.527344 271.582031 L 321.527344 271.582031 L 321.527344 363.878906 L 184.527344 363.878906 Z M 184.527344 271.582031 " fill-opacity="1" fill-rule="nonzero"/></g><g clip-path="url(#0961ddec5a)"><path fill="#000000" d="M 196.53125 268.582031 L 205.53125 268.582031 L 205.53125 274.582031 L 196.53125 274.582031 Z M 208.53125 268.582031 L 217.53125 268.582031 L 217.53125 274.582031 L 208.53125 274.582031 Z M 220.53125 268.582031 L 229.53125 268.582031 L 229.53125 274.582031 L 220.53125 274.582031 Z M 232.53125 268.582031 L 241.53125 268.582031 L 241.53125 274.582031 L 232.53125 274.582031 Z M 244.53125 268.582031 L 253.53125 268.582031 L 253.53125 274.582031 L 244.53125 274.582031 Z M 256.53125 268.582031 L 265.53125 268.582031 L 265.53125 274.582031 L 256.53125 274.582031 Z M 268.53125 268.582031 L 277.53125 268.582031 L 277.53125 274.582031 L 268.53125 274.582031 Z M 280.53125 268.582031 L 289.53125 268.582031 L 289.53125 274.582031 L 280.53125 274.582031 Z M 292.53125 268.582031 L 301.53125 268.582031 L 301.53125 274.582031 L 292.53125 274.582031 Z M 304.53125 268.582031 L 313.53125 268.582031 L 313.53125 274.582031 L 304.53125 274.582031 Z M 316.53125 268.582031 L 324.621094 268.582031 L 324.621094 275.492188 L 318.621094 275.492188 L 318.621094 271.582031 L 321.621094 271.582031 L 321.621094 274.582031 L 316.53125 274.582031 Z M 324.621094 278.492188 L 324.621094 287.492188 L 318.621094 287.492188 L 318.621094 278.492188 Z M 324.621094 290.492188 L 324.621094 299.492188 L 318.621094 299.492188 L 318.621094 290.492188 Z M 324.621094 302.492188 L 324.621094 311.492188 L 318.621094 311.492188 L 318.621094 302.492188 Z M 324.621094 314.492188 L 324.621094 323.492188 L 318.621094 323.492188 L 318.621094 314.492188 Z M 324.621094 326.492188 L 324.621094 335.492188 L 318.621094 335.492188 L 318.621094 326.492188 Z M 324.621094 338.492188 L 324.621094 347.492188 L 318.621094 347.492188 L 318.621094 338.492188 Z M 324.621094 350.492188 L 324.621094 359.492188 L 318.621094 359.492188 L 318.621094 350.492188 Z M 324.621094 362.492188 L 324.621094 366.867188 L 314 366.867188 L 314 360.867188 L 321.621094 360.867188 L 321.621094 363.867188 L 318.621094 363.867188 L 318.621094 362.492188 Z M 311 366.867188 L 302 366.867188 L 302 360.867188 L 311 360.867188 Z M 299 366.867188 L 290 366.867188 L 290 360.867188 L 299 360.867188 Z M 287 366.867188 L 278 366.867188 L 278 360.867188 L 287 360.867188 Z M 275 366.867188 L 266 366.867188 L 266 360.867188 L 275 360.867188 Z M 263 366.867188 L 254 366.867188 L 254 360.867188 L 263 360.867188 Z M 251 366.867188 L 242 366.867188 L 242 360.867188 L 251 360.867188 Z M 239 366.867188 L 230 366.867188 L 230 360.867188 L 239 360.867188 Z M 227 366.867188 L 218 366.867188 L 218 360.867188 L 227 360.867188 Z M 215 366.867188 L 206 366.867188 L 206 360.867188 L 215 360.867188 Z M 203 366.867188 L 194 366.867188 L 194 360.867188 L 203 360.867188 Z M 191 366.867188 L 181.53125 366.867188 L 181.53125 361.332031 L 187.53125 361.332031 L 187.53125 363.867188 L 184.53125 363.867188 L 184.53125 360.867188 L 191 360.867188 Z M 181.53125 358.332031 L 181.53125 349.332031 L 187.53125 349.332031 L 187.53125 358.332031 Z M 181.53125 346.332031 L 181.53125 337.332031 L 187.53125 337.332031 L 187.53125 346.332031 Z M 181.53125 334.332031 L 181.53125 325.332031 L 187.53125 325.332031 L 187.53125 334.332031 Z M 181.53125 322.332031 L 181.53125 313.332031 L 187.53125 313.332031 L 187.53125 322.332031 Z M 181.53125 310.332031 L 181.53125 301.332031 L 187.53125 301.332031 L 187.53125 310.332031 Z M 181.53125 298.332031 L 181.53125 289.332031 L 187.53125 289.332031 L 187.53125 298.332031 Z M 181.53125 286.332031 L 181.53125 277.332031 L 187.53125 277.332031 L 187.53125 286.332031 Z M 181.53125 274.332031 L 181.53125 268.582031 L 193.53125 268.582031 L 193.53125 274.582031 L 184.53125 274.582031 L 184.53125 271.582031 L 187.53125 271.582031 L 187.53125 274.332031 Z M 181.53125 274.332031 " fill-opacity="1" fill-rule="nonzero"/></g><g clip-path="url(#39db6ed509)"><path fill="#90a7ea" d="M 265.730469 256.367188 L 402.730469 256.367188 L 402.730469 348.660156 L 265.730469 348.660156 Z M 265.730469 256.367188 " fill-opacity="1" fill-rule="nonzero"/></g><g clip-path="url(#a5617d0bfe)"><path stroke-linecap="butt" transform="matrix(0.75, 0, 0, 0.75, 265.733807, 256.366912)" fill="none" stroke-linejoin="miter" d="M 0.000757917 0.000366984 L 182.787224 0.000366984 L 182.787224 123.047247 L 0.000757917 123.047247 Z M 0.000757917 0.000366984 " stroke="#000000" stroke-width="8" stroke-opacity="1" stroke-miterlimit="4"/></g><path stroke-linecap="butt" transform="matrix(0.586478, -0.467487, 0.467487, 0.586478, 267.01994, 320.44029)" fill="none" stroke-linejoin="miter" d="M -0.0010104 2.498794 L 55.718954 2.501279 " stroke="#000000" stroke-width="5" stroke-opacity="1" stroke-miterlimit="4"/><path stroke-linecap="butt" transform="matrix(-0.673662, -0.329665, 0.329665, -0.673662, 399.241361, 346.910424)" fill="none" stroke-linejoin="miter" d="M -0.00122916 2.500165 L 149.746254 2.501151 " stroke="#000000" stroke-width="5" stroke-opacity="1" stroke-miterlimit="4"/><path stroke-linecap="butt" transform="matrix(-0.679535, -0.317383, 0.317383, -0.679535, 400.010491, 302.697369)" fill="none" stroke-linejoin="miter" d="M -0.00171957 2.498643 L 70.503745 2.501064 " stroke="#000000" stroke-width="5" stroke-opacity="1" stroke-miterlimit="4"/><path stroke-linecap="butt" transform="matrix(0.595955, -0.455343, 0.455343, 0.595955, 318.038015, 304.013942)" fill="none" stroke-linejoin="miter" d="M -0.000689073 2.499602 L 59.041229 2.502177 " stroke="#000000" stroke-width="5" stroke-opacity="1" stroke-miterlimit="4"/></svg>